# xmcd
#
# Track frame offsets:
#	150
#	20201
#	36814
#	57070
#	74122
#	89972
#	110211
#	129123
#	147903
#	163252
#	180931
#	199561
#	221904
#	238851
#	257233
#	275602
#	291752
#	309525
#	326664
#
# Disc length: 4574 seconds
#
# Revision: 0
# Processed by: cddbd v1.5.2PL0 Copyright (c) Steve Scherf et al.
# Submitted via: audiograbber 1.80
#
DISCID=3511dc13
DTITLE=Rosenstolz - Das große Leben
DYEAR=1900
DGENRE=
TTITLE0=Nichts von alledem (tut mir leid)
TTITLE1=Ich bin ich (Wir sind wir)
TTITLE2=Anders als geplant
TTITLE3=Ich geh in Flammen auf
TTITLE4=Ein Wunder für mich
TTITLE5=Auch im Regen
TTITLE6=Ich bin verändert
TTITLE7=Bester Feind
TTITLE8=Ich hab genauso Angst wie du
TTITLE9=Aus Liebe wollt ich alles wissen
TTITLE10=Etwas zerstört
TTITLE11=Woran hält sich die Liebe
TTITLE12=Das Glück liegt auf der Strasse
TTITLE13=Mein Sex
TTITLE14=Kannst du mich hochziehn
TTITLE15=Alles falsch gemacht
TTITLE16=Wo bist du
TTITLE17=Horizont
TTITLE18=Ich bin ich (Wir sind wir) (Acoustic Version)
EXTD=
EXTT0=
EXTT1=
EXTT2=
EXTT3=
EXTT4=
EXTT5=
EXTT6=
EXTT7=
EXTT8=
EXTT9=
EXTT10=
EXTT11=
EXTT12=
EXTT13=
EXTT14=
EXTT15=
EXTT16=
EXTT17=
EXTT18=
PLAYORDER=
